REM DIRINDEX 1\6,1\2\7,1\2\8,1\2\9,1\3\10,1\3\11,1\4\12,1\4\13,1\4\14,1\5\15,1\5\16,1\5\17
REM DIRNAME cjc041,folder01,folder02,folder03,folder04,folder05,folder06,folder07,folder08,folder09,folder10,folder11,folder12,folder13,folder14,folder15,folder16
TITLE ""
FILE "3Q_j_1277-1292.mp3" MP3
  TRACK 01 AUDIO
    TITLE "12:cjc041_1131"
    INDEX 01 00:00:00
  TRACK 02 AUDIO
    TITLE "0:"
    INDEX 01 00:01:38
  TRACK 03 AUDIO
    TITLE "13:cjc041_1132"
    INDEX 01 00:02:16
  TRACK 04 AUDIO
    TITLE "0:"
    INDEX 01 00:04:11
  TRACK 05 AUDIO
    TITLE "14:cjc041_1133"
    INDEX 01 00:04:66
  TRACK 06 AUDIO
    TITLE "0:"
    INDEX 01 00:08:21
  TRACK 07 AUDIO
    TITLE "12:cjc041_1134"
    INDEX 01 00:09:00
  TRACK 08 AUDIO
    TITLE "0:"
    INDEX 01 00:10:70
  TRACK 09 AUDIO
    TITLE "13:cjc041_1135"
    INDEX 01 00:11:54
  TRACK 10 AUDIO
    TITLE "0:"
    INDEX 01 00:14:11
  TRACK 11 AUDIO
    TITLE "14:cjc041_1136"
    INDEX 01 00:14:60
  TRACK 12 AUDIO
    TITLE "0:"
    INDEX 01 00:18:62
  TRACK 13 AUDIO
    TITLE "12:cjc041_1137"
    INDEX 01 00:19:40
  TRACK 14 AUDIO
    TITLE "0:"
    INDEX 01 00:21:00
  TRACK 15 AUDIO
    TITLE "13:cjc041_1138"
    INDEX 01 00:21:49
  TRACK 16 AUDIO
    TITLE "0:"
    INDEX 01 00:23:04
  TRACK 17 AUDIO
    TITLE "14:cjc041_1139"
    INDEX 01 00:23:55
  TRACK 18 AUDIO
    TITLE "0:"
    INDEX 01 00:27:65
  TRACK 19 AUDIO
    TITLE "12:cjc041_1140"
    INDEX 01 00:28:47
  TRACK 20 AUDIO
    TITLE "0:"
    INDEX 01 00:30:28
  TRACK 21 AUDIO
    TITLE "13:cjc041_1141"
    INDEX 01 00:31:06
  TRACK 22 AUDIO
    TITLE "0:"
    INDEX 01 00:32:52
  TRACK 23 AUDIO
    TITLE "14:cjc041_1142"
    INDEX 01 00:33:30
  TRACK 24 AUDIO
    TITLE "0:"
    INDEX 01 00:38:39
  TRACK 25 AUDIO
    TITLE "12:cjc041_1143"
    INDEX 01 00:39:17
  TRACK 26 AUDIO
    TITLE "0:"
    INDEX 01 00:40:58
  TRACK 27 AUDIO
    TITLE "13:cjc041_1144"
    INDEX 01 00:41:44
  TRACK 28 AUDIO
    TITLE "0:"
    INDEX 01 00:43:01
  TRACK 29 AUDIO
    TITLE "14:cjc041_1145"
    INDEX 01 00:43:52
  TRACK 30 AUDIO
    TITLE "0:"
    INDEX 01 00:47:19
  TRACK 31 AUDIO
    TITLE "12:cjc041_1146"
    INDEX 01 00:47:74
  TRACK 32 AUDIO
    TITLE "0:"
    INDEX 01 00:49:39
  TRACK 33 AUDIO
    TITLE "13:cjc041_1147"
    INDEX 01 00:50:13
  TRACK 34 AUDIO
    TITLE "0:"
    INDEX 01 00:51:40
  TRACK 35 AUDIO
    TITLE "14:cjc041_1148"
    INDEX 01 00:52:12
  TRACK 36 AUDIO
    TITLE "0:"
    INDEX 01 00:55:67
  TRACK 37 AUDIO
    TITLE "12:cjc041_1149"
    INDEX 01 00:56:41
  TRACK 38 AUDIO
    TITLE "0:"
    INDEX 01 00:58:01
  TRACK 39 AUDIO
    TITLE "13:cjc041_1150"
    INDEX 01 00:58:56
  TRACK 40 AUDIO
    TITLE "0:"
    INDEX 01 01:01:13
  TRACK 41 AUDIO
    TITLE "14:cjc041_1151"
    INDEX 01 01:01:64
  TRACK 42 AUDIO
    TITLE "0:"
    INDEX 01 01:04:15
  TRACK 43 AUDIO
    TITLE "12:cjc041_1152"
    INDEX 01 01:04:62
  TRACK 44 AUDIO
    TITLE "0:"
    INDEX 01 01:06:14
  TRACK 45 AUDIO
    TITLE "13:cjc041_1153"
    INDEX 01 01:07:00
  TRACK 46 AUDIO
    TITLE "0:"
    INDEX 01 01:08:21
  TRACK 47 AUDIO
    TITLE "14:cjc041_1154"
    INDEX 01 01:09:01
  TRACK 48 AUDIO
    TITLE "0:"
    INDEX 01 01:12:30
  TRACK 49 AUDIO
    TITLE "12:cjc041_1155"
    INDEX 01 01:13:08
  TRACK 50 AUDIO
    TITLE "0:"
    INDEX 01 01:14:43
  TRACK 51 AUDIO
    TITLE "13:cjc041_1156"
    INDEX 01 01:15:27
  TRACK 52 AUDIO
    TITLE "0:"
    INDEX 01 01:16:54
  TRACK 53 AUDIO
    TITLE "14:cjc041_1157"
    INDEX 01 01:17:35
  TRACK 54 AUDIO
    TITLE "0:"
    INDEX 01 01:20:20
  TRACK 55 AUDIO
    TITLE "12:cjc041_1158"
    INDEX 01 01:21:02
  TRACK 56 AUDIO
    TITLE "0:"
    INDEX 01 01:22:29
  TRACK 57 AUDIO
    TITLE "13:cjc041_1159"
    INDEX 01 01:23:13
  TRACK 58 AUDIO
    TITLE "0:"
    INDEX 01 01:25:02
  TRACK 59 AUDIO
    TITLE "14:cjc041_1160"
    INDEX 01 01:25:58
  TRACK 60 AUDIO
    TITLE "0:"
    INDEX 01 01:29:64
  TRACK 61 AUDIO
    TITLE "12:cjc041_1161"
    INDEX 01 01:30:46
  TRACK 62 AUDIO
    TITLE "0:"
    INDEX 01 01:32:12
  TRACK 63 AUDIO
    TITLE "13:cjc041_1162"
    INDEX 01 01:32:68
  TRACK 64 AUDIO
    TITLE "0:"
    INDEX 01 01:34:18
  TRACK 65 AUDIO
    TITLE "14:cjc041_1163"
    INDEX 01 01:35:00
  TRACK 66 AUDIO
    TITLE "0:"
    INDEX 01 01:37:13
  TRACK 67 AUDIO
    TITLE "12:cjc041_1164"
    INDEX 01 01:37:69
  TRACK 68 AUDIO
    TITLE "0:"
    INDEX 01 01:39:39
  TRACK 69 AUDIO
    TITLE "13:cjc041_1165"
    INDEX 01 01:40:25
  TRACK 70 AUDIO
    TITLE "0:"
    INDEX 01 01:43:21
  TRACK 71 AUDIO
    TITLE "14:cjc041_1166"
    INDEX 01 01:43:74
  TRACK 72 AUDIO
    TITLE "0:"
    INDEX 01 01:48:61
  TRACK 73 AUDIO
    TITLE "12:cjc041_1167"
    INDEX 01 01:49:35
  TRACK 74 AUDIO
    TITLE "0:"
    INDEX 01 01:51:34
  TRACK 75 AUDIO
    TITLE "13:cjc041_1168"
    INDEX 01 01:52:08
  TRACK 76 AUDIO
    TITLE "0:"
    INDEX 01 01:55:05
  TRACK 77 AUDIO
    TITLE "14:cjc041_1169"
    INDEX 01 01:55:58
  TRACK 78 AUDIO
    TITLE "0:"
    INDEX 01 01:58:54
  TRACK 79 AUDIO
    TITLE "12:cjc041_1170"
    INDEX 01 01:59:40
  TRACK 80 AUDIO
    TITLE "0:"
    INDEX 01 02:01:13
  TRACK 81 AUDIO
    TITLE "13:cjc041_1171"
    INDEX 01 02:01:64
  TRACK 82 AUDIO
    TITLE "0:"
    INDEX 01 02:03:02
  TRACK 83 AUDIO
    TITLE "14:cjc041_1172"
    INDEX 01 02:03:57
  TRACK 84 AUDIO
    TITLE "0:"
    INDEX 01 02:08:11
  TRACK 85 AUDIO
    TITLE "12:cjc041_1173"
    INDEX 01 02:08:64
  TRACK 86 AUDIO
    TITLE "0:"
    INDEX 01 02:12:09
  TRACK 87 AUDIO
    TITLE "13:cjc041_1174"
    INDEX 01 02:12:64
  TRACK 88 AUDIO
    TITLE "0:"
    INDEX 01 02:16:60
  TRACK 89 AUDIO
    TITLE "14:cjc041_1175"
    INDEX 01 02:17:42
  TRACK 90 AUDIO
    TITLE "0:"
    INDEX 01 02:21:14
  TRACK 91 AUDIO
    TITLE "12:cjc041_1176"
    INDEX 01 02:21:69
  TRACK 92 AUDIO
    TITLE "0:"
    INDEX 01 02:23:27
  TRACK 93 AUDIO
    TITLE "13:cjc041_1177"
    INDEX 01 02:24:04
  TRACK 94 AUDIO
    TITLE "0:"
    INDEX 01 02:27:18
  TRACK 95 AUDIO
    TITLE "14:cjc041_1178"
    INDEX 01 02:27:63
  TRACK 96 AUDIO
    TITLE "0:"
    INDEX 01 02:31:04
